PathFileType	4	(X/Y/Z)	output.trc
DataRate	CameraRate	NumFrames	NumMarkers	Units	OrigDataRate	OrigDataStartFrame	OrigNumFrames
100	100	10	23	m	100	1	6010
Frame#	Time	C7			T8			EL			EM			US			RS			AA			Fore_Clus_1			Fore_Clus_2			Fore_Clus_3			Fore_Clus_4			Hum_Clus_1			Hum_Clus_2			Hum_Clus_3			Hum_Clus_4			Thor_Clus_1			Thor_Clus_2			Thor_Clus_3			Thor_Clus_4			IJ			PX			GH			Thor_Clus_5		
		X1	Y1	Z1	X2	Y2	Z2	X3	Y3	Z3	X4	Y4	Z4	X5	Y5	Z5	X6	Y6	Z6	X7	Y7	Z7	X8	Y8	Z8	X9	Y9	Z9	X10	Y10	Z10	X11	Y11	Z11	X12	Y12	Z12	X13	Y13	Z13	X14	Y14	Z14	X15	Y15	Z15	X16	Y16	Z16	X17	Y17	Z17	X18	Y18	Z18	X19	Y19	Z19	X20	Y20	Z20	X21	Y21	Z21	X22	Y22	Z22	X23	Y23	Z23
0	0.000000	-0.022608	1.490581	-0.110289	-0.059996	1.241277	-0.160290	-0.137139	1.094568	0.132135	-0.119277	1.075012	0.069920	-0.071016	0.868531	0.202496	-0.022556	0.877694	0.181378	-0.127795	1.410446	0.052281	-0.072554	0.926324	0.224417	-0.055337	0.876626	0.236881	-0.029457	0.883296	0.228299	-0.031339	0.937777	0.209705	-0.114402	1.202145	0.163334	-0.166141	1.204722	0.132406	-0.174677	1.267755	0.130953	-0.121106	1.275218	0.154025	0.139991	1.374768	-0.004143	0.115084	1.322076	0.056839	0.107474	1.370236	0.025606	0.162136	1.328539	0.013357	0.059826	1.402395	-0.026897	0.111022	1.204932	0.005395	-0.096564	1.379667	0.050954	0.105130	1.342372	0.048961
1	0.010000	-0.022590	1.490600	-0.110180	-0.059732	1.241316	-0.160466	-0.137181	1.094472	0.132151	-0.119287	1.074932	0.069940	-0.071090	0.868435	0.202525	-0.022615	0.877607	0.181448	-0.127988	1.410249	0.052146	-0.072671	0.926238	0.224460	-0.055425	0.876512	0.236929	-0.029529	0.883233	0.228346	-0.031416	0.937699	0.209746	-0.114500	1.202047	0.163361	-0.166230	1.204620	0.132415	-0.174787	1.267655	0.130965	-0.121215	1.275142	0.154054	0.139955	1.374810	-0.003833	0.114988	1.322042	0.057125	0.107350	1.370248	0.025810	0.162040	1.328547	0.013603	0.059767	1.402393	-0.026733	0.111040	1.204934	0.005464	-0.096664	1.379597	0.051032	0.105172	1.342605	0.049305
2	0.020000	-0.022566	1.490616	-0.110081	-0.059474	1.241352	-0.160635	-0.137235	1.094372	0.132165	-0.119308	1.074846	0.069958	-0.071166	0.868338	0.202564	-0.022672	0.877523	0.181534	-0.128190	1.410069	0.052001	-0.072763	0.926165	0.224486	-0.055518	0.876430	0.236983	-0.029611	0.883167	0.228419	-0.031496	0.937613	0.209827	-0.114627	1.201948	0.163409	-0.166340	1.204486	0.132430	-0.174900	1.267534	0.130974	-0.121350	1.275047	0.154087	0.139926	1.374876	-0.003477	0.114875	1.322098	0.057116	0.107164	1.370276	0.026067	0.161964	1.328582	0.013860	0.059702	1.402389	-0.026567	0.111039	1.204935	0.005554	-0.096779	1.379521	0.051099	0.104936	1.342370	0.049501
3	0.030000	-0.022542	1.490626	-0.109990	-0.059235	1.241378	-0.160778	-0.137302	1.094269	0.132172	-0.119338	1.074755	0.069972	-0.071241	0.868243	0.202611	-0.022728	0.877442	0.181633	-0.128397	1.409912	0.051858	-0.072859	0.926093	0.224538	-0.055628	0.876370	0.237038	-0.029685	0.883104	0.228499	-0.031588	0.937548	0.209920	-0.114741	1.201840	0.163387	-0.166471	1.204363	0.132418	-0.175030	1.267422	0.130972	-0.121506	1.274951	0.154116	0.139789	1.374863	-0.003232	0.114745	1.322194	0.057467	0.106950	1.370252	0.026338	0.161887	1.328611	0.014160	0.059631	1.402385	-0.026399	0.111017	1.204935	0.005673	-0.096911	1.379440	0.051155	0.104770	1.342453	0.049707
4	0.040000	-0.022525	1.490628	-0.109902	-0.059027	1.241390	-0.160879	-0.137382	1.094163	0.132170	-0.119375	1.074662	0.069979	-0.071319	0.868150	0.202662	-0.022784	0.877368	0.181742	-0.128606	1.409784	0.051732	-0.072972	0.926028	0.224588	-0.055736	0.876278	0.237113	-0.029778	0.883053	0.228582	-0.031685	0.937473	0.210025	-0.114918	1.201756	0.163457	-0.166623	1.204224	0.132412	-0.175184	1.267290	0.130967	-0.121670	1.274846	0.154126	0.139815	1.374938	-0.002870	0.114535	1.322267	0.057891	0.106814	1.370231	0.026662	0.161774	1.328621	0.014441	0.059552	1.402379	-0.026224	0.110972	1.204935	0.005828	-0.097062	1.379357	0.051197	0.104580	1.342385	0.049951
5	0.050000	-0.022517	1.490616	-0.109823	-0.058847	1.241381	-0.160936	-0.137481	1.094056	0.132158	-0.119425	1.074565	0.069978	-0.071399	0.868062	0.202719	-0.022842	0.877302	0.181862	-0.128819	1.409680	0.051621	-0.073098	0.925952	0.224651	-0.055852	0.876220	0.237168	-0.029893	0.883023	0.228682	-0.031801	0.937423	0.210128	-0.115076	1.201662	0.163455	-0.166778	1.204086	0.132393	-0.175364	1.267168	0.130914	-0.121842	1.274747	0.154146	0.139644	1.374889	-0.002638	0.114375	1.322283	0.058134	0.106676	1.370280	0.026932	0.161658	1.328655	0.014736	0.059463	1.402370	-0.026046	0.110906	1.204934	0.006022	-0.097231	1.379271	0.051227	0.104353	1.342354	0.050140
6	0.060000	-0.022523	1.490591	-0.109742	-0.058706	1.241351	-0.160939	-0.137598	1.093947	0.132132	-0.119482	1.074468	0.069966	-0.071485	0.867979	0.202775	-0.022904	0.877245	0.181984	-0.129032	1.409602	0.051540	-0.073251	0.925883	0.224708	-0.055980	0.876166	0.237247	-0.030052	0.882963	0.228862	-0.031928	0.937365	0.210233	-0.115253	1.201559	0.163458	-0.166920	1.203958	0.132353	-0.175564	1.267039	0.130861	-0.122043	1.274634	0.154146	0.139410	1.374851	-0.002415	0.114181	1.322301	0.058350	0.106563	1.370304	0.027178	0.161571	1.328699	0.015048	0.059363	1.402358	-0.025859	0.110819	1.204934	0.006258	-0.097421	1.379185	0.051243	0.104622	1.342616	0.050528
7	0.070000	-0.022544	1.490549	-0.109663	-0.058596	1.241296	-0.160891	-0.137737	1.093838	0.132089	-0.119550	1.074369	0.069940	-0.071578	0.867902	0.202829	-0.022972	0.877197	0.182109	-0.129247	1.409544	0.051483	-0.073405	0.925820	0.224757	-0.056143	0.876135	0.237319	-0.030525	0.883270	0.228734	-0.032085	0.937317	0.210343	-0.115463	1.201455	0.163454	-0.167100	1.203855	0.132293	-0.175792	1.266906	0.130777	-0.122282	1.274543	0.154137	0.139193	1.374782	-0.002218	0.114043	1.322221	0.058607	0.106456	1.370352	0.027426	0.161401	1.328676	0.015366	0.059252	1.402343	-0.025665	0.110716	1.204934	0.006533	-0.097629	1.379099	0.051246	0.105334	1.343198	0.051062
8	0.080000	-0.022581	1.490490	-0.109584	-0.058512	1.241217	-0.160797	-0.137897	1.093729	0.132029	-0.119629	1.074271	0.069900	-0.071681	0.867831	0.202876	-0.023050	0.877158	0.182231	-0.129464	1.409499	0.051449	-0.073591	0.925752	0.224794	-0.056310	0.876093	0.237381	-0.030666	0.882980	0.229024	-0.032250	0.937254	0.210443	-0.115693	1.201334	0.163387	-0.167288	1.203740	0.132217	-0.176061	1.266791	0.130676	-0.122570	1.274436	0.154118	0.138926	1.374739	-0.001981	0.113812	1.322239	0.058833	0.106301	1.370364	0.027665	0.161242	1.328686	0.015679	0.059132	1.402322	-0.025464	0.110601	1.204933	0.006845	-0.097853	1.379013	0.051238	0.104970	1.343113	0.051230
9	0.090000	-0.022634	1.490416	-0.109501	-0.058452	1.241116	-0.160663	-0.138080	1.093620	0.131949	-0.119717	1.074174	0.069845	-0.071799	0.867765	0.202912	-0.023142	0.877129	0.182344	-0.129684	1.409461	0.051439	-0.073799	0.925683	0.224801	-0.056493	0.876066	0.237427	-0.030522	0.882813	0.229438	-0.032432	0.937216	0.210519	-0.115987	1.201236	0.163332	-0.167517	1.203622	0.132117	-0.176334	1.266697	0.130565	-0.122913	1.274336	0.154069	0.138695	1.374658	-0.001686	0.113559	1.322260	0.059111	0.106156	1.370356	0.027926	0.161078	1.328685	0.016008	0.059002	1.402298	-0.025254	0.110477	1.204932	0.007187	-0.098092	1.378929	0.051218	0.104581	1.342935	0.051558
